<svg width="145" height="50" viewBox="0 0 145 50" fill="none" xmlns="http://www.w3.org/2000/svg">
<path d="M27.5 5V11.675L25 14.175L22.5 11.675V5H27.5ZM45 22.5V27.5H38.325L35.825 25L38.325 22.5H45ZM11.675 22.5L14.175 25L11.675 27.5H5V22.5H11.675ZM25 35.825L27.5 38.325V45H22.5V38.325L25 35.825ZM32.5 0H17.5V13.75L25 21.25L32.5 13.75V0ZM50 17.5H36.25L28.75 25L36.25 32.5H50V17.5ZM13.75 17.5H0V32.5H13.75L21.25 25L13.75 17.5ZM25 28.75L17.5 36.25V50H32.5V36.25L25 28.75Z" fill="white"/>
<path d="M64 13H66V15H68V17H70V21H72V23H68V21H66V17H62V23H58V9H62V15H64V13ZM72 9V11H70V13H66V11H68V9H72ZM75.6 23V9H79.6V17H81.6V15H83.6V13H85.6V9H89.6V23H85.6V17H83.6V19H81.6V21H79.6V23H75.6ZM93.2 23V9H105.2V11H97.2V15H105.2V17H107.2V21H105.2V23H93.2ZM97.2 21H103.2V17H97.2V21ZM110.8 23V9H124.8V11H114.8V15H122.8V17H114.8V21H124.8V23H110.8ZM128.4 23V9H140.4V11H142.4V17H140.4V19H132.4V23H128.4ZM132.4 17H138.4V11H132.4V17ZM58 45V31H72V45H68V33H62V45H58ZM77.6 45V43H75.6V33H77.6V31H87.6V33H89.6V43H87.6V45H77.6ZM79.6 43H85.6V33H79.6V43ZM93.2 45V31H105.2V33H107.2V39H105.2V41H97.2V45H93.2ZM97.2 39H103.2V33H97.2V39ZM116.8 45V33H112.8V31H124.8V33H120.8V45H116.8Z" fill="white"/>
</svg>
