<svg width="47" height="37" viewBox="0 0 47 37" fill="none" xmlns="http://www.w3.org/2000/svg">
<path d="M38.6725 5.02722L39.8943 4.125H38.3755H8.6245H7.10566L8.32749 5.02722L23.203 16.0116L23.5 16.2309L23.797 16.0116L38.6725 5.02722ZM4.99691 7.11333L4.2 6.52518V7.51562V30.0625C4.2 30.811 4.50225 31.5273 5.0376 32.0541C5.57268 32.5806 6.29671 32.875 7.05 32.875H39.95C40.7033 32.875 41.4273 32.5806 41.9624 32.0541C42.4977 31.5273 42.8 30.811 42.8 30.0625V7.51562V6.52518L42.0031 7.11333L24.6131 19.9477C24.2928 20.1841 23.9023 20.3125 23.5 20.3125C23.0977 20.3125 22.7072 20.1841 22.3869 19.9477L4.99691 7.11333ZM7.05 0.5H39.95C41.6897 0.5 43.3566 1.18016 44.5844 2.38833C45.8119 3.59624 46.5 5.23279 46.5 6.9375V30.0625C46.5 31.7672 45.8119 33.4038 44.5844 34.6117C43.3566 35.8198 41.6897 36.5 39.95 36.5H7.05C5.31026 36.5 3.64336 35.8198 2.4156 34.6117C1.1881 33.4038 0.5 31.7672 0.5 30.0625V6.9375C0.5 5.23279 1.1881 3.59624 2.4156 2.38833C3.64336 1.18016 5.31026 0.5 7.05 0.5Z" fill="#FBBB43" stroke="black"/>
</svg>
