<svg width="47" height="44" viewBox="0 0 47 44" fill="none" xmlns="http://www.w3.org/2000/svg">
<path fill-rule="evenodd" clip-rule="evenodd" d="M34.5746 43.9937C31.1849 43.877 21.5783 42.6343 11.5174 33.2197C1.45886 23.8029 0.133569 14.8136 0.0064546 11.6387C-0.181864 6.80028 3.77753 2.1007 8.35131 0.265371C8.90209 0.0427677 9.50523 -0.0419842 10.1016 0.019432C10.6979 0.0808482 11.2669 0.286322 11.7528 0.615692C15.5192 3.18471 18.118 7.07128 20.3495 10.1272C20.8405 10.7986 21.0505 11.6156 20.9393 12.4226C20.8282 13.2295 20.4038 13.97 19.7469 14.5029L15.1543 17.6955C14.9324 17.8454 14.7762 18.0657 14.7148 18.3153C14.6533 18.5649 14.6907 18.8269 14.82 19.0527C15.8605 20.8219 17.7107 23.457 19.8293 25.44C21.9479 27.4229 24.8974 29.2693 26.9195 30.3533C27.173 30.4865 27.4714 30.5237 27.7534 30.4573C28.0354 30.3909 28.2794 30.226 28.4355 29.9963L31.425 25.7374C31.9746 25.0541 32.7854 24.5963 33.6876 24.4599C34.5898 24.3236 35.5133 24.5192 36.2648 25.0059C39.5768 27.1519 43.4421 29.5425 46.2716 32.9333C46.652 33.3914 46.894 33.9367 46.9723 34.5123C47.0506 35.0878 46.9622 35.6725 46.7165 36.2052C44.7462 40.5082 39.7605 44.1722 34.5746 43.9937Z" fill="#FBBB43"/>
</svg>
