<svg width="48" height="51" viewBox="0 0 48 51" fill="none" xmlns="http://www.w3.org/2000/svg">
<path fill-rule="evenodd" clip-rule="evenodd" d="M39.9457 7.25313C40.4549 7.029 41.0122 6.9517 41.5596 7.02927C42.107 7.10684 42.6246 7.33646 43.0583 7.69421C43.4921 8.05196 43.8263 8.52478 44.0261 9.06344C44.2259 9.60211 44.2839 10.1869 44.1943 10.757L39.5212 40.4023C39.068 43.2619 36.068 44.9018 33.5605 43.4774C31.463 42.2857 28.3476 40.4497 25.5455 38.534C24.1444 37.5751 19.8526 34.5043 20.38 32.3192C20.8333 30.4509 28.0448 23.4301 32.1656 19.2561C33.783 17.6162 33.0454 16.6702 31.1354 18.1786C26.3923 21.9239 18.777 27.6193 16.2592 29.2226C14.0381 30.6362 12.8801 30.8776 11.4955 30.6362C8.96946 30.1966 6.62678 29.5157 4.71471 28.686C2.13096 27.5655 2.25664 23.8504 4.71265 22.7686L39.9457 7.25313Z" fill="#FBBB43"/>
</svg>
