<svg width="48" height="51" viewBox="0 0 48 51" fill="none" xmlns="http://www.w3.org/2000/svg">
<path fill-rule="evenodd" clip-rule="evenodd" d="M39.6839 32.0294C39.6839 32.0294 43.032 36.2195 43.8602 38.1585C43.8773 38.1857 43.89 38.2169 43.8975 38.2503C44.2343 38.9657 44.3192 39.5298 44.1522 39.9426C43.8727 40.6274 42.9264 40.9711 42.6055 41H36.6878C36.2758 41 35.4185 40.8636 34.375 39.9505C33.5778 39.2447 32.7848 38.0824 32.0166 36.9463C30.8695 35.2592 29.8777 33.7952 28.8735 33.7952C28.7468 33.7972 28.6211 33.8237 28.5008 33.8739C27.7409 34.1782 26.776 35.5505 26.776 39.2054C26.776 40.3493 26.0637 41 25.5647 41H22.8543C21.9309 41 17.123 40.5907 12.8597 34.8945C7.63567 27.9206 2.94377 13.9307 2.89821 13.8074C2.60626 12.9022 3.21915 12.409 3.88173 12.409H9.85739C10.6587 12.409 10.9196 13.0229 11.1018 13.5739C11.313 14.2062 12.0957 16.7355 13.3794 19.5771C15.4583 24.2001 16.7358 26.0813 17.7566 26.0813C17.9483 26.0817 18.1368 26.0184 18.3032 25.8977C19.6367 24.9689 19.3882 18.9342 19.3261 17.6906C19.3261 17.4492 19.324 14.996 18.6407 13.81C18.1521 12.9599 17.3197 12.6294 16.8166 12.5087C16.9512 12.262 17.2369 11.8842 17.6034 11.6612C18.5165 11.084 20.1667 11 21.8046 11H22.7135C24.4901 11.0315 24.9498 11.1758 25.5958 11.3831C26.8961 11.7766 26.9209 12.8445 26.8071 16.481C26.7739 17.52 26.7387 18.6902 26.7387 20.0677C26.7387 20.3616 26.7284 20.6895 26.7284 21.0227C26.689 22.8882 26.6373 24.9899 27.6767 25.8531C27.811 25.9608 27.967 26.0173 28.126 26.0157C28.4863 26.0157 29.565 26.0157 32.4908 19.6531C33.7745 16.8431 34.7684 13.5293 34.8367 13.28C34.8947 13.141 35.0686 12.75 35.2798 12.5926C35.4307 12.4936 35.5985 12.4431 35.7685 12.4457H42.798C43.5642 12.4457 44.0839 12.5926 44.1853 12.9599C44.3551 13.5555 44.1522 15.3738 40.9428 20.8732C40.4024 21.7889 39.9282 22.5813 39.5121 23.2739C36.6029 28.1121 36.6029 28.3561 39.6839 32.0294Z" fill="#FBBB43"/>
</svg>
