<svg width="33" height="23" viewBox="0 0 33 23" fill="none" xmlns="http://www.w3.org/2000/svg">
<path d="M2.02317 10.0166C2.02317 10.0166 16.6183 4.96763 21.6801 3.18977C23.6206 2.47869 30.201 0.20303 30.201 0.20303C30.201 0.20303 33.2382 -0.792484 32.985 1.62529C32.9006 2.62091 32.2257 6.10536 31.5508 9.87434C30.5384 15.2078 29.4417 21.039 29.4417 21.039C29.4417 21.039 29.2729 22.6746 27.8388 22.959C26.4046 23.2435 24.0423 21.9635 23.6206 21.679C23.283 21.4657 17.2932 18.2656 15.0997 16.7011C14.5091 16.2745 13.8342 15.4212 15.184 14.4256C18.2212 12.0788 21.8488 9.16326 24.0423 7.31434C25.0547 6.46095 26.067 4.46982 21.8488 6.8876C15.859 10.3721 9.95346 13.6433 9.95346 13.6433C9.95346 13.6433 8.60359 14.3544 6.07268 13.7144C3.54165 13.0745 0.588883 12.2211 0.588883 12.2211C0.588883 12.2211 -1.43575 11.1544 2.02317 10.0166Z" fill="white"/>
</svg>
