<svg width="33" height="23" viewBox="0 0 33 23" fill="none" xmlns="http://www.w3.org/2000/svg">
<path fill-rule="evenodd" clip-rule="evenodd" d="M29.3731 16.1225C29.3731 16.1225 32.0412 19.335 32.7012 20.8215C32.7148 20.8423 32.7249 20.8663 32.7309 20.8919C32.9993 21.4404 33.0669 21.8729 32.9338 22.1893C32.7111 22.7144 31.957 22.9779 31.7013 23H26.9856C26.6573 23 25.9742 22.8954 25.1426 22.1954C24.5073 21.6543 23.8754 20.7632 23.2633 19.8922C22.3492 18.5987 21.5588 17.4763 20.7586 17.4763C20.6576 17.4778 20.5575 17.4982 20.4616 17.5366C19.856 17.77 19.0872 18.822 19.0872 21.6241C19.0872 22.5011 18.5196 23 18.1219 23H15.9621C15.2262 23 11.3949 22.6862 7.99762 18.3191C3.83471 12.9725 0.0958476 2.2469 0.059548 2.15235C-0.1731 1.45837 0.315295 1.0802 0.84329 1.0802H5.60514C6.24369 1.0802 6.45158 1.5509 6.59678 1.97333C6.76508 2.45811 7.38877 4.39724 8.41176 6.57574C10.0683 10.1201 11.0864 11.5624 11.8998 11.5624C12.0526 11.5626 12.2028 11.5141 12.3354 11.4216C13.398 10.7095 13.2 6.08291 13.1505 5.12944C13.1505 4.94438 13.1489 3.06358 12.6044 2.15436C12.215 1.50262 11.5517 1.24917 11.1507 1.15664C11.258 0.967552 11.4857 0.67789 11.7777 0.506909C12.5054 0.0643691 13.8204 0 15.1255 0H15.8499C17.2656 0.0241385 17.6319 0.134773 18.1467 0.293685C19.1829 0.595417 19.2027 1.41412 19.1119 4.20212C19.0855 4.99869 19.0575 5.89584 19.0575 6.9519C19.0575 7.17719 19.0492 7.42863 19.0492 7.6841C19.0179 9.11431 18.9766 10.7256 19.8049 11.3874C19.912 11.47 20.0363 11.5133 20.1629 11.5121C20.45 11.5121 21.3097 11.5121 23.6411 6.63407C24.6641 4.47971 25.4561 1.93913 25.5105 1.74803C25.5567 1.64142 25.6953 1.3417 25.8636 1.22101C25.9839 1.14506 26.1176 1.10638 26.253 1.10836H31.8547C32.4652 1.10836 32.8794 1.22101 32.9602 1.50262C33.0955 1.95924 32.9338 3.35324 30.3763 7.56944C29.9457 8.27147 29.5678 8.87896 29.2362 9.41001C26.918 13.1193 26.918 13.3064 29.3731 16.1225Z" fill="white"/>
</svg>
