<svg width="102" height="102" viewBox="0 0 102 102" fill="none" xmlns="http://www.w3.org/2000/svg">
<path d="M33.586 30.793L46.8382 2.70538C47.2239 1.89252 47.8172 1.20882 48.5515 0.730971C49.2858 0.253118 50.1321 0 50.9954 0C51.8587 0 52.705 0.253118 53.4393 0.730971C54.1736 1.20882 54.7669 1.89252 55.1526 2.70538L68.4048 30.793L98.0309 35.324C98.8855 35.4487 99.6895 35.8237 100.351 36.4063C101.013 36.9889 101.506 37.7555 101.773 38.6187C102.041 39.4819 102.072 40.4069 101.864 41.288C101.656 42.1692 101.217 42.971 100.597 43.6021L79.1626 65.4516L84.2227 96.32C84.8706 100.282 80.8919 103.299 77.4895 101.431L50.9954 86.8501L24.4962 101.431C21.0989 103.304 17.1202 100.282 17.7681 96.3147L22.8282 65.4462L1.39412 43.5967C0.776841 42.9652 0.340264 42.1642 0.134013 41.2846C-0.0722372 40.405 -0.039887 39.4822 0.227386 38.6209C0.494659 37.7597 0.986134 36.9947 1.64595 36.4128C2.30576 35.831 3.10745 35.4556 3.95988 35.3293L33.586 30.793Z" fill="url(#paint0_linear_77_56)"/>
<defs>
<linearGradient id="paint0_linear_77_56" x1="-3.76719e-09" y1="53.9892" x2="102.031" y2="48.5902" gradientUnits="userSpaceOnUse">
<stop stop-color="#FF4548"/>
<stop offset="1" stop-color="#FF743B"/>
</linearGradient>
</defs>
</svg>
