<svg width="102" height="102" viewBox="0 0 102 102" fill="none" xmlns="http://www.w3.org/2000/svg">
<path d="M95.5612 39.5341C93.8446 37.74 92.0687 35.8912 91.3993 34.2656C90.78 32.7766 90.7436 30.3086 90.7071 27.9179C90.6388 23.4737 90.566 18.4374 87.0643 14.9357C83.5626 11.434 78.5263 11.3612 74.0821 11.2929C71.6914 11.2564 69.2234 11.22 67.7344 10.6007C66.1133 9.93134 64.26 8.15545 62.4659 6.43875C59.3239 3.41973 55.7539 0 51 0C46.2461 0 42.6806 3.41973 39.5341 6.43875C37.74 8.15545 35.8912 9.93134 34.2656 10.6007C32.7857 11.22 30.3086 11.2564 27.9179 11.2929C23.4737 11.3612 18.4374 11.434 14.9357 14.9357C11.434 18.4374 11.3839 23.4737 11.2929 27.9179C11.2564 30.3086 11.22 32.7766 10.6007 34.2656C9.93134 35.8867 8.15545 37.74 6.43875 39.5341C3.41973 42.6806 0 46.2461 0 51C0 55.7539 3.41973 59.3194 6.43875 62.4659C8.15545 64.26 9.93134 66.1087 10.6007 67.7344C11.22 69.2234 11.2564 71.6914 11.2929 74.0821C11.3612 78.5263 11.434 83.5626 14.9357 87.0643C18.4374 90.566 23.4737 90.6388 27.9179 90.7071C30.3086 90.7436 32.7766 90.78 34.2656 91.3993C35.8867 92.0687 37.74 93.8446 39.5341 95.5612C42.6761 98.5803 46.2461 102 51 102C55.7539 102 59.3194 98.5803 62.4659 95.5612C64.26 93.8446 66.1087 92.0687 67.7344 91.3993C69.2234 90.78 71.6914 90.7436 74.0821 90.7071C78.5263 90.6388 83.5626 90.566 87.0643 87.0643C90.566 83.5626 90.6388 78.5263 90.7071 74.0821C90.7436 71.6914 90.78 69.2234 91.3993 67.7344C92.0687 66.1133 93.8446 64.26 95.5612 62.4659C98.5803 59.3194 102 55.7539 102 51C102 46.2461 98.5803 42.6806 95.5612 39.5341ZM90.3019 57.4251C88.1207 59.7019 85.8621 62.0561 84.6645 64.9476C83.517 67.7253 83.467 70.8991 83.4214 73.9728C83.3759 77.1603 83.3258 80.498 81.9096 81.9096C80.4935 83.3213 77.1785 83.3759 73.9728 83.4214C70.8991 83.467 67.7253 83.517 64.9476 84.6645C62.0561 85.8621 59.7019 88.1207 57.4251 90.3019C55.1483 92.483 52.8214 94.7143 51 94.7143C49.1786 94.7143 46.8335 92.4739 44.5749 90.3019C42.3163 88.1298 39.9439 85.8621 37.0524 84.6645C34.2747 83.517 31.1009 83.467 28.0272 83.4214C24.8397 83.3759 21.502 83.3258 20.0904 81.9096C18.6787 80.4935 18.6241 77.1785 18.5786 73.9728C18.533 70.8991 18.4829 67.7253 17.3354 64.9476C16.1379 62.0561 13.8793 59.7019 11.6981 57.4251C9.51696 55.1483 7.28571 52.8214 7.28571 51C7.28571 49.1786 9.52607 46.838 11.6981 44.5749C13.8702 42.3118 16.1379 39.9439 17.3354 37.0524C18.4829 34.2747 18.533 31.1009 18.5786 28.0272C18.6241 24.8397 18.6742 21.502 20.0904 20.0904C21.5065 18.6787 24.8215 18.6241 28.0272 18.5786C31.1009 18.533 34.2747 18.4829 37.0524 17.3354C39.9439 16.1379 42.2981 13.8793 44.5749 11.6981C46.8517 9.51696 49.1786 7.28571 51 7.28571C52.8214 7.28571 55.1665 9.52607 57.4251 11.6981C59.6837 13.8702 62.0561 16.1379 64.9476 17.3354C67.7253 18.4829 70.8991 18.533 73.9728 18.5786C77.1603 18.6241 80.498 18.6742 81.9096 20.0904C83.3213 21.5065 83.3759 24.8215 83.4214 28.0272C83.467 31.1009 83.517 34.2747 84.6645 37.0524C85.8621 39.9439 88.1207 42.2981 90.3019 44.5749C92.483 46.8517 94.7143 49.1786 94.7143 51C94.7143 52.8214 92.4739 55.162 90.3019 57.4251ZM47.3571 36.4286C47.3571 34.2671 46.7162 32.1542 45.5153 30.357C44.3145 28.5598 42.6077 27.159 40.6108 26.3319C38.6138 25.5047 36.4164 25.2883 34.2965 25.71C32.1766 26.1317 30.2293 27.1725 28.7009 28.7009C27.1725 30.2293 26.1317 32.1766 25.71 34.2965C25.2883 36.4164 25.5047 38.6138 26.3319 40.6108C27.159 42.6077 28.5598 44.3145 30.357 45.5153C32.1542 46.7162 34.2671 47.3571 36.4286 47.3571C39.327 47.3571 42.1067 46.2057 44.1562 44.1562C46.2057 42.1067 47.3571 39.327 47.3571 36.4286ZM32.7857 36.4286C32.7857 35.7081 32.9994 35.0038 33.3996 34.4047C33.7999 33.8056 34.3689 33.3387 35.0345 33.063C35.7002 32.7873 36.4326 32.7151 37.1393 32.8557C37.8459 32.9963 38.495 33.3432 39.0045 33.8527C39.5139 34.3621 39.8609 35.0112 40.0014 35.7179C40.142 36.4245 40.0699 37.157 39.7941 37.8226C39.5184 38.4883 39.0515 39.0572 38.4524 39.4575C37.8534 39.8578 37.1491 40.0714 36.4286 40.0714C35.4624 40.0714 34.5359 39.6876 33.8527 39.0045C33.1695 38.3213 32.7857 37.3947 32.7857 36.4286ZM65.5714 54.6429C63.41 54.6429 61.297 55.2838 59.4998 56.4846C57.7026 57.6855 56.3019 59.3923 55.4747 61.3892C54.6476 63.3862 54.4312 65.5836 54.8528 67.7035C55.2745 69.8234 56.3154 71.7707 57.8438 73.2991C59.3721 74.8275 61.3194 75.8683 63.4394 76.29C65.5593 76.7117 67.7567 76.4953 69.7536 75.6681C71.7505 74.841 73.4574 73.4402 74.6582 71.643C75.8591 69.8458 76.5 67.7329 76.5 65.5714C76.5 62.673 75.3486 59.8933 73.2991 57.8438C71.2496 55.7943 68.4699 54.6429 65.5714 54.6429ZM65.5714 69.2143C64.8509 69.2143 64.1466 69.0006 63.5476 68.6004C62.9485 68.2001 62.4816 67.6311 62.2059 66.9655C61.9301 66.2998 61.858 65.5674 61.9986 64.8607C62.1391 64.1541 62.4861 63.505 62.9955 62.9955C63.505 62.4861 64.1541 62.1391 64.8607 61.9986C65.5674 61.858 66.2998 61.9301 66.9655 62.2059C67.6311 62.4816 68.2001 62.9485 68.6004 63.5476C69.0006 64.1466 69.2143 64.8509 69.2143 65.5714C69.2143 66.5376 68.8305 67.4642 68.1473 68.1473C67.4642 68.8305 66.5376 69.2143 65.5714 69.2143ZM71.7916 35.363L35.363 71.7916C35.0246 72.1301 34.6228 72.3985 34.1806 72.5817C33.7383 72.7649 33.2644 72.8592 32.7857 72.8592C32.3071 72.8592 31.8331 72.7649 31.3909 72.5817C30.9487 72.3985 30.5468 72.1301 30.2084 71.7916C29.8699 71.4531 29.6015 71.0513 29.4183 70.6091C29.2351 70.1669 29.1408 69.6929 29.1408 69.2143C29.1408 68.7356 29.2351 68.2617 29.4183 67.8194C29.6015 67.3772 29.8699 66.9754 30.2084 66.637L66.637 30.2084C66.9754 29.8699 67.3772 29.6015 67.8194 29.4183C68.2617 29.2351 68.7356 29.1408 69.2143 29.1408C69.6929 29.1408 70.1669 29.2351 70.6091 29.4183C71.0513 29.6015 71.4531 29.8699 71.7916 30.2084C72.1301 30.5468 72.3985 30.9487 72.5817 31.3909C72.7649 31.8331 72.8592 32.3071 72.8592 32.7857C72.8592 33.2644 72.7649 33.7383 72.5817 34.1806C72.3985 34.6228 72.1301 35.0246 71.7916 35.363Z" fill="url(#paint0_linear_77_52)"/>
<defs>
<linearGradient id="paint0_linear_77_52" x1="3.28355" y1="51.9107" x2="100.426" y2="51.9107" gradientUnits="userSpaceOnUse">
<stop stop-color="#FF4548"/>
<stop offset="1" stop-color="#FF743B"/>
</linearGradient>
</defs>
</svg>
