<svg width="94" height="102" viewBox="0 0 94 102" fill="none" xmlns="http://www.w3.org/2000/svg">
<path d="M80.3923 13.9612C76.0674 9.55967 70.9234 6.06087 65.2547 3.6652C59.586 1.26952 53.5039 0.0240171 47.3568 0H46.9998C34.5347 0 22.5801 4.9894 13.7659 13.8706C4.95175 22.7518 0 34.7972 0 47.3571V72.8571C0 75.7556 1.14271 78.5353 3.17675 80.5848C5.21079 82.6343 7.96955 83.7857 10.8461 83.7857H18.0769C20.9534 83.7857 23.7122 82.6343 25.7462 80.5848C27.7803 78.5353 28.923 75.7556 28.923 72.8571V54.6429C28.923 51.7444 27.7803 48.9647 25.7462 46.9152C23.7122 44.8657 20.9534 43.7143 18.0769 43.7143H7.39343C8.09067 36.1186 10.9222 28.8806 15.5562 22.8485C20.1901 16.8164 26.4345 12.2401 33.5574 9.65614C40.6803 7.07214 48.3867 6.58744 55.7733 8.25884C63.1598 9.93025 69.9205 13.6885 75.263 19.0931C81.7928 25.7063 85.8092 34.4207 86.6107 43.7143H75.9228C73.0462 43.7143 70.2875 44.8657 68.2534 46.9152C66.2194 48.9647 65.0767 51.7444 65.0767 54.6429V72.8571C65.0767 75.7556 66.2194 78.5353 68.2534 80.5848C70.2875 82.6343 73.0462 83.7857 75.9228 83.7857H86.7689C86.7689 86.6842 85.6262 89.4639 83.5922 91.5134C81.5581 93.5629 78.7994 94.7143 75.9228 94.7143H50.6152C49.6563 94.7143 48.7368 95.0981 48.0587 95.7812C47.3807 96.4644 46.9998 97.391 46.9998 98.3571C46.9998 99.3233 47.3807 100.25 48.0587 100.933C48.7368 101.616 49.6563 102 50.6152 102H75.9228C80.7171 102 85.315 100.081 88.7051 96.6652C92.0951 93.2493 93.9997 88.6164 93.9997 83.7857V47.3571C94.0232 41.1623 92.8334 35.0238 90.4984 29.2931C88.1634 23.5624 84.7291 18.3523 80.3923 13.9612ZM18.0769 51C19.0357 51 19.9553 51.3838 20.6333 52.067C21.3113 52.7501 21.6922 53.6767 21.6922 54.6429V72.8571C21.6922 73.8233 21.3113 74.7499 20.6333 75.433C19.9553 76.1162 19.0357 76.5 18.0769 76.5H10.8461C9.88726 76.5 8.96768 76.1162 8.28966 75.433C7.61165 74.7499 7.23074 73.8233 7.23074 72.8571V51H18.0769ZM75.9228 76.5C74.9639 76.5 74.0444 76.1162 73.3663 75.433C72.6883 74.7499 72.3074 73.8233 72.3074 72.8571V54.6429C72.3074 53.6767 72.6883 52.7501 73.3663 52.067C74.0444 51.3838 74.9639 51 75.9228 51H86.7689V76.5H75.9228Z" fill="url(#paint0_linear_77_48)"/>
<defs>
<linearGradient id="paint0_linear_77_48" x1="-3.14105e-08" y1="50.6154" x2="94.0001" y2="51.3731" gradientUnits="userSpaceOnUse">
<stop stop-color="#FF4548"/>
<stop offset="1" stop-color="#FF743B"/>
</linearGradient>
</defs>
</svg>
